<svg xmlns="http://www.w3.org/2000/svg" xmlns:xlink="http://www.w3.org/1999/xlink" width="1366" zoomAndPan="magnify" viewBox="0 0 1024.5 800.25" height="1067" preserveAspectRatio="xMidYMid meet" version="1.0"><defs><g/><clipPath id="d1e23e1ee9"><path d="M 11 0 L 830 0 L 830 796.59375 L 11 796.59375 Z M 11 0 " clip-rule="nonzero"/></clipPath></defs><g clip-path="url(#d1e23e1ee9)"><path fill="#00bf63" d="M 428.101562 486.929688 L 163.8125 287.128906 L 163.8125 796.570312 L 11.703125 796.570312 L 11.703125 -2.882812 L 264.207031 188.019531 L 264.230469 188.019531 L 428.101562 311.914062 L 829.230469 2.890625 L 829.230469 183.652344 L 543.832031 399.433594 L 508.742188 425.96875 Z M 676.679688 567.128906 L 677.125 796.59375 L 829.230469 796.59375 L 828.789062 452.132812 Z M 676.679688 567.128906 " fill-opacity="1" fill-rule="nonzero"/></g><path fill="#000000" d="M 780.773438 266.09375 L 428.101562 532.75 L 202.726562 362.34375 L 202.726562 537.363281 L 428.101562 707.765625 L 1012.265625 266.09375 Z M 780.773438 266.09375 " fill-opacity="1" fill-rule="nonzero"/><g fill="#000000" fill-opacity="0.4"><g transform="translate(299.873168, 168.789635)"><g><path d="M 33.328125 -43.625 L 42.921875 -43.625 L 42.921875 3.21875 L 33.328125 3.21875 L 33.328125 -31.40625 L 23.15625 -22.453125 L 13.125 -31.328125 L 13.125 3.21875 L 2.3125 3.21875 L 2.3125 -43.6875 L 13.125 -43.6875 L 23.296875 -32.296875 Z M 33.328125 -43.625 "/></g></g></g><g fill="#000000" fill-opacity="0.4"><g transform="translate(345.430118, 168.789635)"><g><path d="M 11.390625 3.21875 L 1.03125 3.21875 L 17.765625 -43.6875 L 26.828125 -43.6875 L 43.4375 3.21875 L 34.875 3.21875 L 31.984375 -6.5 L 14.609375 -6.5 Z M 17.1875 -12.03125 L 29.21875 -12.03125 L 23.359375 -31.921875 L 23.234375 -31.921875 Z M 17.1875 -12.03125 "/></g></g></g><g fill="#000000" fill-opacity="0.4"><g transform="translate(390.472291, 168.789635)"><g><path d="M 2.640625 -43.625 L 22.0625 -43.625 C 23.863281 -43.625 25.726562 -43.410156 27.65625 -42.984375 C 29.59375 -42.554688 31.363281 -41.769531 32.96875 -40.625 C 34.582031 -39.488281 35.90625 -37.9375 36.9375 -35.96875 C 37.96875 -34 38.457031 -31.46875 38.40625 -28.375 L 38.34375 -12.875 C 38.34375 -10.039062 37.796875 -7.601562 36.703125 -5.5625 C 35.609375 -3.53125 34.222656 -1.867188 32.546875 -0.578125 C 30.878906 0.703125 29.023438 1.65625 26.984375 2.28125 C 24.953125 2.90625 22.945312 3.21875 20.96875 3.21875 L 2.640625 3.21875 Z M 30.234375 -26 C 30.234375 -28.914062 29.515625 -31.046875 28.078125 -32.390625 C 26.648438 -33.742188 24.15625 -34.421875 20.59375 -34.421875 L 13 -34.421875 L 13 -6.953125 L 21.171875 -6.953125 C 22.328125 -6.953125 23.453125 -7.066406 24.546875 -7.296875 C 25.640625 -7.535156 26.601562 -7.929688 27.4375 -8.484375 C 28.28125 -9.046875 28.957031 -9.796875 29.46875 -10.734375 C 29.976562 -11.679688 30.234375 -12.882812 30.234375 -14.34375 Z M 30.234375 -26 "/></g></g></g><g fill="#000000" fill-opacity="0.4"><g transform="translate(431.589363, 168.789635)"><g><path d="M 12.671875 3.21875 L 3.28125 3.21875 L 3.28125 -43.625 L 12.671875 -43.625 Z M 12.671875 3.21875 "/></g></g></g><g fill="#000000" fill-opacity="0.4"><g transform="translate(447.354125, 168.789635)"><g><path d="M 2.375 -1.671875 L 2.375 -12.03125 C 4.695312 -10.53125 7.257812 -9.222656 10.0625 -8.109375 C 12.875 -6.992188 15.953125 -6.4375 19.296875 -6.4375 C 20.460938 -6.4375 21.59375 -6.507812 22.6875 -6.65625 C 23.78125 -6.8125 24.765625 -7.046875 25.640625 -7.359375 C 26.515625 -7.679688 27.242188 -8.117188 27.828125 -8.671875 C 28.410156 -9.234375 28.765625 -9.945312 28.890625 -10.8125 C 29.015625 -11.84375 28.765625 -12.734375 28.140625 -13.484375 C 27.523438 -14.234375 26.765625 -14.863281 25.859375 -15.375 C 24.960938 -15.894531 24.019531 -16.3125 23.03125 -16.625 C 22.050781 -16.945312 21.238281 -17.175781 20.59375 -17.3125 C 17.25 -18.164062 14.535156 -18.925781 12.453125 -19.59375 C 10.367188 -20.257812 9.023438 -20.765625 8.421875 -21.109375 C 4.429688 -23.335938 2.4375 -26.507812 2.4375 -30.625 C 2.4375 -32.8125 2.960938 -34.71875 4.015625 -36.34375 C 5.066406 -37.976562 6.425781 -39.34375 8.09375 -40.4375 C 9.769531 -41.53125 11.640625 -42.34375 13.703125 -42.875 C 15.765625 -43.414062 17.800781 -43.6875 19.8125 -43.6875 C 22.644531 -43.6875 25.390625 -43.3125 28.046875 -42.5625 C 30.710938 -41.8125 33.179688 -40.644531 35.453125 -39.0625 L 35.453125 -30.046875 C 34.554688 -30.816406 33.5625 -31.554688 32.46875 -32.265625 C 31.375 -32.972656 30.222656 -33.582031 29.015625 -34.09375 C 27.816406 -34.613281 26.570312 -35.007812 25.28125 -35.28125 C 24 -35.5625 22.734375 -35.640625 21.484375 -35.515625 C 19.390625 -35.304688 17.71875 -34.847656 16.46875 -34.140625 C 15.226562 -33.429688 14.609375 -32.257812 14.609375 -30.625 C 14.609375 -29.8125 14.972656 -29.082031 15.703125 -28.4375 C 16.429688 -27.789062 17.296875 -27.222656 18.296875 -26.734375 C 19.304688 -26.242188 20.316406 -25.828125 21.328125 -25.484375 C 22.335938 -25.140625 23.144531 -24.878906 23.75 -24.703125 C 25.9375 -24.066406 27.953125 -23.425781 29.796875 -22.78125 C 31.640625 -22.132812 33.222656 -21.304688 34.546875 -20.296875 C 35.878906 -19.285156 36.898438 -18 37.609375 -16.4375 C 38.316406 -14.875 38.628906 -12.867188 38.546875 -10.421875 C 38.453125 -7.972656 37.796875 -5.890625 36.578125 -4.171875 C 35.359375 -2.460938 33.828125 -1.0625 31.984375 0.03125 C 30.140625 1.125 28.125 1.925781 25.9375 2.4375 C 23.75 2.957031 21.664062 3.21875 19.6875 3.21875 C 16.8125 3.21875 13.828125 2.785156 10.734375 1.921875 C 7.648438 1.066406 4.863281 -0.128906 2.375 -1.671875 Z M 2.375 -1.671875 "/></g></g></g><g fill="#000000" fill-opacity="0.4"><g transform="translate(488.278156, 168.789635)"><g><path d="M 11.390625 3.21875 L 1.03125 3.21875 L 17.765625 -43.6875 L 26.828125 -43.6875 L 43.4375 3.21875 L 34.875 3.21875 L 31.984375 -6.5 L 14.609375 -6.5 Z M 17.1875 -12.03125 L 29.21875 -12.03125 L 23.359375 -31.921875 L 23.234375 -31.921875 Z M 17.1875 -12.03125 "/></g></g></g><g fill="#ffffff" fill-opacity="1"><g transform="translate(297.028983, 165.945442)"><g><path d="M 33.328125 -43.625 L 42.921875 -43.625 L 42.921875 3.21875 L 33.328125 3.21875 L 33.328125 -31.40625 L 23.15625 -22.453125 L 13.125 -31.328125 L 13.125 3.21875 L 2.3125 3.21875 L 2.3125 -43.6875 L 13.125 -43.6875 L 23.296875 -32.296875 Z M 33.328125 -43.625 "/></g></g></g><g fill="#ffffff" fill-opacity="1"><g transform="translate(342.585932, 165.945442)"><g><path d="M 11.390625 3.21875 L 1.03125 3.21875 L 17.765625 -43.6875 L 26.828125 -43.6875 L 43.4375 3.21875 L 34.875 3.21875 L 31.984375 -6.5 L 14.609375 -6.5 Z M 17.1875 -12.03125 L 29.21875 -12.03125 L 23.359375 -31.921875 L 23.234375 -31.921875 Z M 17.1875 -12.03125 "/></g></g></g><g fill="#ffffff" fill-opacity="1"><g transform="translate(387.628105, 165.945442)"><g><path d="M 2.640625 -43.625 L 22.0625 -43.625 C 23.863281 -43.625 25.726562 -43.410156 27.65625 -42.984375 C 29.59375 -42.554688 31.363281 -41.769531 32.96875 -40.625 C 34.582031 -39.488281 35.90625 -37.9375 36.9375 -35.96875 C 37.96875 -34 38.457031 -31.46875 38.40625 -28.375 L 38.34375 -12.875 C 38.34375 -10.039062 37.796875 -7.601562 36.703125 -5.5625 C 35.609375 -3.53125 34.222656 -1.867188 32.546875 -0.578125 C 30.878906 0.703125 29.023438 1.65625 26.984375 2.28125 C 24.953125 2.90625 22.945312 3.21875 20.96875 3.21875 L 2.640625 3.21875 Z M 30.234375 -26 C 30.234375 -28.914062 29.515625 -31.046875 28.078125 -32.390625 C 26.648438 -33.742188 24.15625 -34.421875 20.59375 -34.421875 L 13 -34.421875 L 13 -6.953125 L 21.171875 -6.953125 C 22.328125 -6.953125 23.453125 -7.066406 24.546875 -7.296875 C 25.640625 -7.535156 26.601562 -7.929688 27.4375 -8.484375 C 28.28125 -9.046875 28.957031 -9.796875 29.46875 -10.734375 C 29.976562 -11.679688 30.234375 -12.882812 30.234375 -14.34375 Z M 30.234375 -26 "/></g></g></g><g fill="#ffffff" fill-opacity="1"><g transform="translate(428.745178, 165.945442)"><g><path d="M 12.671875 3.21875 L 3.28125 3.21875 L 3.28125 -43.625 L 12.671875 -43.625 Z M 12.671875 3.21875 "/></g></g></g><g fill="#ffffff" fill-opacity="1"><g transform="translate(444.509939, 165.945442)"><g><path d="M 2.375 -1.671875 L 2.375 -12.03125 C 4.695312 -10.53125 7.257812 -9.222656 10.0625 -8.109375 C 12.875 -6.992188 15.953125 -6.4375 19.296875 -6.4375 C 20.460938 -6.4375 21.59375 -6.507812 22.6875 -6.65625 C 23.78125 -6.8125 24.765625 -7.046875 25.640625 -7.359375 C 26.515625 -7.679688 27.242188 -8.117188 27.828125 -8.671875 C 28.410156 -9.234375 28.765625 -9.945312 28.890625 -10.8125 C 29.015625 -11.84375 28.765625 -12.734375 28.140625 -13.484375 C 27.523438 -14.234375 26.765625 -14.863281 25.859375 -15.375 C 24.960938 -15.894531 24.019531 -16.3125 23.03125 -16.625 C 22.050781 -16.945312 21.238281 -17.175781 20.59375 -17.3125 C 17.25 -18.164062 14.535156 -18.925781 12.453125 -19.59375 C 10.367188 -20.257812 9.023438 -20.765625 8.421875 -21.109375 C 4.429688 -23.335938 2.4375 -26.507812 2.4375 -30.625 C 2.4375 -32.8125 2.960938 -34.71875 4.015625 -36.34375 C 5.066406 -37.976562 6.425781 -39.34375 8.09375 -40.4375 C 9.769531 -41.53125 11.640625 -42.34375 13.703125 -42.875 C 15.765625 -43.414062 17.800781 -43.6875 19.8125 -43.6875 C 22.644531 -43.6875 25.390625 -43.3125 28.046875 -42.5625 C 30.710938 -41.8125 33.179688 -40.644531 35.453125 -39.0625 L 35.453125 -30.046875 C 34.554688 -30.816406 33.5625 -31.554688 32.46875 -32.265625 C 31.375 -32.972656 30.222656 -33.582031 29.015625 -34.09375 C 27.816406 -34.613281 26.570312 -35.007812 25.28125 -35.28125 C 24 -35.5625 22.734375 -35.640625 21.484375 -35.515625 C 19.390625 -35.304688 17.71875 -34.847656 16.46875 -34.140625 C 15.226562 -33.429688 14.609375 -32.257812 14.609375 -30.625 C 14.609375 -29.8125 14.972656 -29.082031 15.703125 -28.4375 C 16.429688 -27.789062 17.296875 -27.222656 18.296875 -26.734375 C 19.304688 -26.242188 20.316406 -25.828125 21.328125 -25.484375 C 22.335938 -25.140625 23.144531 -24.878906 23.75 -24.703125 C 25.9375 -24.066406 27.953125 -23.425781 29.796875 -22.78125 C 31.640625 -22.132812 33.222656 -21.304688 34.546875 -20.296875 C 35.878906 -19.285156 36.898438 -18 37.609375 -16.4375 C 38.316406 -14.875 38.628906 -12.867188 38.546875 -10.421875 C 38.453125 -7.972656 37.796875 -5.890625 36.578125 -4.171875 C 35.359375 -2.460938 33.828125 -1.0625 31.984375 0.03125 C 30.140625 1.125 28.125 1.925781 25.9375 2.4375 C 23.75 2.957031 21.664062 3.21875 19.6875 3.21875 C 16.8125 3.21875 13.828125 2.785156 10.734375 1.921875 C 7.648438 1.066406 4.863281 -0.128906 2.375 -1.671875 Z M 2.375 -1.671875 "/></g></g></g><g fill="#ffffff" fill-opacity="1"><g transform="translate(485.43397, 165.945442)"><g><path d="M 11.390625 3.21875 L 1.03125 3.21875 L 17.765625 -43.6875 L 26.828125 -43.6875 L 43.4375 3.21875 L 34.875 3.21875 L 31.984375 -6.5 L 14.609375 -6.5 Z M 17.1875 -12.03125 L 29.21875 -12.03125 L 23.359375 -31.921875 L 23.234375 -31.921875 Z M 17.1875 -12.03125 "/></g></g></g><g fill="#000000" fill-opacity="0.4"><g transform="translate(222.789162, 779.649454)"><g><path d="M 30.3125 -11.125 L 39.578125 -11.125 C 39.578125 -8.894531 39.210938 -6.898438 38.484375 -5.140625 C 37.753906 -3.390625 36.742188 -1.890625 35.453125 -0.640625 C 34.160156 0.597656 32.632812 1.550781 30.875 2.21875 C 29.125 2.882812 27.21875 3.21875 25.15625 3.21875 L 16.46875 3.21875 C 15.050781 3.21875 13.550781 3.003906 11.96875 2.578125 C 10.382812 2.148438 8.914062 1.429688 7.5625 0.421875 C 6.207031 -0.585938 5.078125 -1.9375 4.171875 -3.625 C 3.273438 -5.320312 2.828125 -7.4375 2.828125 -9.96875 L 2.828125 -29.015625 C 2.828125 -31.035156 3.179688 -32.9375 3.890625 -34.71875 C 4.597656 -36.5 5.613281 -38.039062 6.9375 -39.34375 C 8.269531 -40.65625 9.890625 -41.695312 11.796875 -42.46875 C 13.710938 -43.238281 15.847656 -43.625 18.203125 -43.625 L 25.28125 -43.625 C 27.039062 -43.625 28.660156 -43.351562 30.140625 -42.8125 C 31.617188 -42.28125 32.9375 -41.550781 34.09375 -40.625 C 35.257812 -39.707031 36.257812 -38.601562 37.09375 -37.3125 C 37.925781 -36.03125 38.601562 -34.640625 39.125 -33.140625 L 30.3125 -30.375 C 29.75 -31.570312 28.941406 -32.546875 27.890625 -33.296875 C 26.835938 -34.046875 25.691406 -34.421875 24.453125 -34.421875 L 19.5625 -34.421875 C 18.445312 -34.421875 17.476562 -34.21875 16.65625 -33.8125 C 15.84375 -33.40625 15.164062 -32.878906 14.625 -32.234375 C 14.09375 -31.585938 13.695312 -30.859375 13.4375 -30.046875 C 13.1875 -29.234375 13.0625 -28.398438 13.0625 -27.546875 L 13.0625 -12.15625 C 13.0625 -11.082031 13.132812 -10.109375 13.28125 -9.234375 C 13.4375 -8.359375 13.726562 -7.597656 14.15625 -6.953125 C 14.582031 -6.304688 15.171875 -5.800781 15.921875 -5.4375 C 16.671875 -5.070312 17.648438 -4.890625 18.859375 -4.890625 L 24.328125 -4.890625 C 26.296875 -4.890625 27.75 -5.5 28.6875 -6.71875 C 29.632812 -7.945312 30.175781 -9.414062 30.3125 -11.125 Z M 30.3125 -11.125 "/></g></g></g><g fill="#000000" fill-opacity="0.4"><g transform="translate(264.678387, 779.649454)"><g><path d="M 25.859375 3.21875 L 16.34375 3.21875 C 14.925781 3.21875 13.390625 3.003906 11.734375 2.578125 C 10.085938 2.148438 8.554688 1.429688 7.140625 0.421875 C 5.722656 -0.585938 4.550781 -1.90625 3.625 -3.53125 C 2.707031 -5.164062 2.25 -7.1875 2.25 -9.59375 L 2.25 -29.734375 C 2.25 -31.828125 2.65625 -33.734375 3.46875 -35.453125 C 4.289062 -37.171875 5.394531 -38.640625 6.78125 -39.859375 C 8.175781 -41.078125 9.796875 -42.019531 11.640625 -42.6875 C 13.484375 -43.351562 15.4375 -43.6875 17.5 -43.6875 L 24.0625 -43.6875 C 26.164062 -43.6875 28.117188 -43.351562 29.921875 -42.6875 C 31.722656 -42.019531 33.273438 -41.078125 34.578125 -39.859375 C 35.890625 -38.640625 36.910156 -37.179688 37.640625 -35.484375 C 38.367188 -33.785156 38.734375 -31.890625 38.734375 -29.796875 L 38.734375 -9.390625 C 38.734375 -7.503906 38.335938 -5.773438 37.546875 -4.203125 C 36.753906 -2.640625 35.722656 -1.3125 34.453125 -0.21875 C 33.191406 0.875 31.796875 1.71875 30.265625 2.3125 C 28.742188 2.914062 27.273438 3.21875 25.859375 3.21875 Z M 22.390625 -4.5 C 24.453125 -4.5 26.101562 -5.046875 27.34375 -6.140625 C 28.59375 -7.234375 29.21875 -8.8125 29.21875 -10.875 L 29.21875 -29.078125 C 29.21875 -29.898438 29.078125 -30.675781 28.796875 -31.40625 C 28.515625 -32.132812 28.09375 -32.773438 27.53125 -33.328125 C 26.976562 -33.890625 26.28125 -34.328125 25.4375 -34.640625 C 24.601562 -34.960938 23.609375 -35.125 22.453125 -35.125 L 18.859375 -35.125 C 17.691406 -35.125 16.671875 -34.953125 15.796875 -34.609375 C 14.921875 -34.273438 14.179688 -33.828125 13.578125 -33.265625 C 12.972656 -32.703125 12.519531 -32.054688 12.21875 -31.328125 C 11.925781 -30.597656 11.78125 -29.828125 11.78125 -29.015625 L 11.78125 -10.875 C 11.78125 -9.113281 12.269531 -7.609375 13.25 -6.359375 C 14.238281 -5.117188 15.9375 -4.5 18.34375 -4.5 Z M 22.390625 -4.5 "/></g></g></g><g fill="#000000" fill-opacity="0.4"><g transform="translate(306.181541, 779.649454)"><g><path d="M 14.03125 3.21875 L 2.640625 3.21875 L 2.640625 -43.6875 L 14.03125 -43.6875 L 31.078125 -11.203125 L 31.078125 -43.6875 L 40.46875 -43.6875 L 40.46875 3.21875 L 30.5625 3.21875 L 14.03125 -26.125 Z M 14.03125 3.21875 "/></g></g></g><g fill="#000000" fill-opacity="0.4"><g transform="translate(348.907267, 779.649454)"><g><path d="M 2.375 -1.671875 L 2.375 -12.03125 C 4.695312 -10.53125 7.257812 -9.222656 10.0625 -8.109375 C 12.875 -6.992188 15.953125 -6.4375 19.296875 -6.4375 C 20.460938 -6.4375 21.59375 -6.507812 22.6875 -6.65625 C 23.78125 -6.8125 24.765625 -7.046875 25.640625 -7.359375 C 26.515625 -7.679688 27.242188 -8.117188 27.828125 -8.671875 C 28.410156 -9.234375 28.765625 -9.945312 28.890625 -10.8125 C 29.015625 -11.84375 28.765625 -12.734375 28.140625 -13.484375 C 27.523438 -14.234375 26.765625 -14.863281 25.859375 -15.375 C 24.960938 -15.894531 24.019531 -16.3125 23.03125 -16.625 C 22.050781 -16.945312 21.238281 -17.175781 20.59375 -17.3125 C 17.25 -18.164062 14.535156 -18.925781 12.453125 -19.59375 C 10.367188 -20.257812 9.023438 -20.765625 8.421875 -21.109375 C 4.429688 -23.335938 2.4375 -26.507812 2.4375 -30.625 C 2.4375 -32.8125 2.960938 -34.71875 4.015625 -36.34375 C 5.066406 -37.976562 6.425781 -39.34375 8.09375 -40.4375 C 9.769531 -41.53125 11.640625 -42.34375 13.703125 -42.875 C 15.765625 -43.414062 17.800781 -43.6875 19.8125 -43.6875 C 22.644531 -43.6875 25.390625 -43.3125 28.046875 -42.5625 C 30.710938 -41.8125 33.179688 -40.644531 35.453125 -39.0625 L 35.453125 -30.046875 C 34.554688 -30.816406 33.5625 -31.554688 32.46875 -32.265625 C 31.375 -32.972656 30.222656 -33.582031 29.015625 -34.09375 C 27.816406 -34.613281 26.570312 -35.007812 25.28125 -35.28125 C 24 -35.5625 22.734375 -35.640625 21.484375 -35.515625 C 19.390625 -35.304688 17.71875 -34.847656 16.46875 -34.140625 C 15.226562 -33.429688 14.609375 -32.257812 14.609375 -30.625 C 14.609375 -29.8125 14.972656 -29.082031 15.703125 -28.4375 C 16.429688 -27.789062 17.296875 -27.222656 18.296875 -26.734375 C 19.304688 -26.242188 20.316406 -25.828125 21.328125 -25.484375 C 22.335938 -25.140625 23.144531 -24.878906 23.75 -24.703125 C 25.9375 -24.066406 27.953125 -23.425781 29.796875 -22.78125 C 31.640625 -22.132812 33.222656 -21.304688 34.546875 -20.296875 C 35.878906 -19.285156 36.898438 -18 37.609375 -16.4375 C 38.316406 -14.875 38.628906 -12.867188 38.546875 -10.421875 C 38.453125 -7.972656 37.796875 -5.890625 36.578125 -4.171875 C 35.359375 -2.460938 33.828125 -1.0625 31.984375 0.03125 C 30.140625 1.125 28.125 1.925781 25.9375 2.4375 C 23.75 2.957031 21.664062 3.21875 19.6875 3.21875 C 16.8125 3.21875 13.828125 2.785156 10.734375 1.921875 C 7.648438 1.066406 4.863281 -0.128906 2.375 -1.671875 Z M 2.375 -1.671875 "/></g></g></g><g fill="#000000" fill-opacity="0.4"><g transform="translate(389.831298, 779.649454)"><g><path d="M 12.734375 -43.375 L 12.734375 -12.546875 C 12.734375 -11.941406 12.804688 -11.316406 12.953125 -10.671875 C 13.109375 -10.035156 13.390625 -9.425781 13.796875 -8.84375 C 14.203125 -8.269531 14.75 -7.800781 15.4375 -7.4375 C 16.125 -7.070312 17.023438 -6.890625 18.140625 -6.890625 L 24.578125 -6.890625 C 25.648438 -6.890625 26.550781 -7.070312 27.28125 -7.4375 C 28.007812 -7.800781 28.597656 -8.269531 29.046875 -8.84375 C 29.503906 -9.425781 29.828125 -10.070312 30.015625 -10.78125 C 30.210938 -11.488281 30.3125 -12.207031 30.3125 -12.9375 L 30.3125 -43.375 L 40.671875 -43.375 L 40.671875 -10.6875 C 40.671875 -8.238281 40.269531 -6.132812 39.46875 -4.375 C 38.675781 -2.613281 37.613281 -1.175781 36.28125 -0.0625 C 34.957031 1.050781 33.414062 1.875 31.65625 2.40625 C 29.894531 2.945312 28.03125 3.21875 26.0625 3.21875 L 17.5 3.21875 C 15.1875 3.21875 13.0625 2.84375 11.125 2.09375 C 9.195312 1.34375 7.554688 0.289062 6.203125 -1.0625 C 4.859375 -2.414062 3.84375 -4.015625 3.15625 -5.859375 C 2.46875 -7.703125 2.1875 -9.738281 2.3125 -11.96875 L 2.3125 -43.375 Z M 12.734375 -43.375 "/></g></g></g><g fill="#000000" fill-opacity="0.4"><g transform="translate(432.750053, 779.649454)"><g><path d="M 13.0625 -3.609375 L 34.421875 -3.609375 L 34.421875 3.28125 L 2.640625 3.28125 L 2.640625 -43.625 L 13.0625 -43.625 Z M 13.0625 -3.609375 "/></g></g></g><g fill="#000000" fill-opacity="0.4"><g transform="translate(468.783801, 779.649454)"><g><path d="M 1.09375 -43.6875 L 41.765625 -43.6875 L 41.765625 -33.78125 L 26.828125 -33.78125 L 26.828125 3.21875 L 16.859375 3.21875 L 16.859375 -33.78125 L 1.09375 -33.78125 Z M 1.09375 -43.6875 "/></g></g></g><g fill="#000000" fill-opacity="0.4"><g transform="translate(511.509526, 779.649454)"><g><path d="M 12.671875 3.21875 L 3.28125 3.21875 L 3.28125 -43.625 L 12.671875 -43.625 Z M 12.671875 3.21875 "/></g></g></g><g fill="#000000" fill-opacity="0.4"><g transform="translate(527.274277, 779.649454)"><g><path d="M 14.03125 3.21875 L 2.640625 3.21875 L 2.640625 -43.6875 L 14.03125 -43.6875 L 31.078125 -11.203125 L 31.078125 -43.6875 L 40.46875 -43.6875 L 40.46875 3.21875 L 30.5625 3.21875 L 14.03125 -26.125 Z M 14.03125 3.21875 "/></g></g></g><g fill="#000000" fill-opacity="0.4"><g transform="translate(570.000002, 779.649454)"><g><path d="M 38.484375 -21.6875 L 38.484375 -11.265625 C 38.484375 -6.628906 37.492188 -3.117188 35.515625 -0.734375 C 33.546875 1.640625 30.546875 3 26.515625 3.34375 C 24.960938 3.519531 23.40625 3.582031 21.84375 3.53125 C 20.28125 3.488281 18.507812 3.425781 16.53125 3.34375 C 14.769531 3.300781 13.03125 2.988281 11.3125 2.40625 C 9.601562 1.832031 8.070312 0.96875 6.71875 -0.1875 C 5.375 -1.351562 4.269531 -2.820312 3.40625 -4.59375 C 2.550781 -6.375 2.125 -8.53125 2.125 -11.0625 L 2.125 -28.890625 C 2.125 -30.953125 2.488281 -32.882812 3.21875 -34.6875 C 3.945312 -36.488281 5.007812 -38.039062 6.40625 -39.34375 C 7.800781 -40.65625 9.484375 -41.695312 11.453125 -42.46875 C 13.421875 -43.238281 15.671875 -43.625 18.203125 -43.625 L 22.78125 -43.625 C 24.882812 -43.625 26.757812 -43.363281 28.40625 -42.84375 C 30.0625 -42.332031 31.507812 -41.601562 32.75 -40.65625 C 33.988281 -39.71875 35.023438 -38.613281 35.859375 -37.34375 C 36.703125 -36.082031 37.378906 -34.679688 37.890625 -33.140625 L 28.765625 -30.375 C 28.503906 -30.925781 28.222656 -31.457031 27.921875 -31.96875 C 27.617188 -32.488281 27.242188 -32.929688 26.796875 -33.296875 C 26.347656 -33.660156 25.8125 -33.945312 25.1875 -34.15625 C 24.5625 -34.375 23.78125 -34.484375 22.84375 -34.484375 L 18.921875 -34.484375 C 16.597656 -34.484375 14.847656 -33.859375 13.671875 -32.609375 C 12.492188 -31.367188 11.90625 -29.894531 11.90625 -28.1875 L 11.90625 -12.03125 C 11.90625 -9.582031 12.460938 -7.75 13.578125 -6.53125 C 14.691406 -5.3125 16.28125 -4.703125 18.34375 -4.703125 L 22.71875 -4.703125 C 24.21875 -4.703125 25.40625 -4.914062 26.28125 -5.34375 C 27.164062 -5.769531 27.832031 -6.367188 28.28125 -7.140625 C 28.726562 -7.910156 29.015625 -8.820312 29.140625 -9.875 C 29.273438 -10.925781 29.34375 -12.070312 29.34375 -13.3125 L 29.28125 -16.21875 L 21.6875 -16.21875 L 21.6875 -21.6875 Z M 38.484375 -21.6875 "/></g></g></g><g fill="#ffffff" fill-opacity="1"><g transform="translate(219.944976, 776.805288)"><g><path d="M 30.3125 -11.125 L 39.578125 -11.125 C 39.578125 -8.894531 39.210938 -6.898438 38.484375 -5.140625 C 37.753906 -3.390625 36.742188 -1.890625 35.453125 -0.640625 C 34.160156 0.597656 32.632812 1.550781 30.875 2.21875 C 29.125 2.882812 27.21875 3.21875 25.15625 3.21875 L 16.46875 3.21875 C 15.050781 3.21875 13.550781 3.003906 11.96875 2.578125 C 10.382812 2.148438 8.914062 1.429688 7.5625 0.421875 C 6.207031 -0.585938 5.078125 -1.9375 4.171875 -3.625 C 3.273438 -5.320312 2.828125 -7.4375 2.828125 -9.96875 L 2.828125 -29.015625 C 2.828125 -31.035156 3.179688 -32.9375 3.890625 -34.71875 C 4.597656 -36.5 5.613281 -38.039062 6.9375 -39.34375 C 8.269531 -40.65625 9.890625 -41.695312 11.796875 -42.46875 C 13.710938 -43.238281 15.847656 -43.625 18.203125 -43.625 L 25.28125 -43.625 C 27.039062 -43.625 28.660156 -43.351562 30.140625 -42.8125 C 31.617188 -42.28125 32.9375 -41.550781 34.09375 -40.625 C 35.257812 -39.707031 36.257812 -38.601562 37.09375 -37.3125 C 37.925781 -36.03125 38.601562 -34.640625 39.125 -33.140625 L 30.3125 -30.375 C 29.75 -31.570312 28.941406 -32.546875 27.890625 -33.296875 C 26.835938 -34.046875 25.691406 -34.421875 24.453125 -34.421875 L 19.5625 -34.421875 C 18.445312 -34.421875 17.476562 -34.21875 16.65625 -33.8125 C 15.84375 -33.40625 15.164062 -32.878906 14.625 -32.234375 C 14.09375 -31.585938 13.695312 -30.859375 13.4375 -30.046875 C 13.1875 -29.234375 13.0625 -28.398438 13.0625 -27.546875 L 13.0625 -12.15625 C 13.0625 -11.082031 13.132812 -10.109375 13.28125 -9.234375 C 13.4375 -8.359375 13.726562 -7.597656 14.15625 -6.953125 C 14.582031 -6.304688 15.171875 -5.800781 15.921875 -5.4375 C 16.671875 -5.070312 17.648438 -4.890625 18.859375 -4.890625 L 24.328125 -4.890625 C 26.296875 -4.890625 27.75 -5.5 28.6875 -6.71875 C 29.632812 -7.945312 30.175781 -9.414062 30.3125 -11.125 Z M 30.3125 -11.125 "/></g></g></g><g fill="#ffffff" fill-opacity="1"><g transform="translate(261.834202, 776.805288)"><g><path d="M 25.859375 3.21875 L 16.34375 3.21875 C 14.925781 3.21875 13.390625 3.003906 11.734375 2.578125 C 10.085938 2.148438 8.554688 1.429688 7.140625 0.421875 C 5.722656 -0.585938 4.550781 -1.90625 3.625 -3.53125 C 2.707031 -5.164062 2.25 -7.1875 2.25 -9.59375 L 2.25 -29.734375 C 2.25 -31.828125 2.65625 -33.734375 3.46875 -35.453125 C 4.289062 -37.171875 5.394531 -38.640625 6.78125 -39.859375 C 8.175781 -41.078125 9.796875 -42.019531 11.640625 -42.6875 C 13.484375 -43.351562 15.4375 -43.6875 17.5 -43.6875 L 24.0625 -43.6875 C 26.164062 -43.6875 28.117188 -43.351562 29.921875 -42.6875 C 31.722656 -42.019531 33.273438 -41.078125 34.578125 -39.859375 C 35.890625 -38.640625 36.910156 -37.179688 37.640625 -35.484375 C 38.367188 -33.785156 38.734375 -31.890625 38.734375 -29.796875 L 38.734375 -9.390625 C 38.734375 -7.503906 38.335938 -5.773438 37.546875 -4.203125 C 36.753906 -2.640625 35.722656 -1.3125 34.453125 -0.21875 C 33.191406 0.875 31.796875 1.71875 30.265625 2.3125 C 28.742188 2.914062 27.273438 3.21875 25.859375 3.21875 Z M 22.390625 -4.5 C 24.453125 -4.5 26.101562 -5.046875 27.34375 -6.140625 C 28.59375 -7.234375 29.21875 -8.8125 29.21875 -10.875 L 29.21875 -29.078125 C 29.21875 -29.898438 29.078125 -30.675781 28.796875 -31.40625 C 28.515625 -32.132812 28.09375 -32.773438 27.53125 -33.328125 C 26.976562 -33.890625 26.28125 -34.328125 25.4375 -34.640625 C 24.601562 -34.960938 23.609375 -35.125 22.453125 -35.125 L 18.859375 -35.125 C 17.691406 -35.125 16.671875 -34.953125 15.796875 -34.609375 C 14.921875 -34.273438 14.179688 -33.828125 13.578125 -33.265625 C 12.972656 -32.703125 12.519531 -32.054688 12.21875 -31.328125 C 11.925781 -30.597656 11.78125 -29.828125 11.78125 -29.015625 L 11.78125 -10.875 C 11.78125 -9.113281 12.269531 -7.609375 13.25 -6.359375 C 14.238281 -5.117188 15.9375 -4.5 18.34375 -4.5 Z M 22.390625 -4.5 "/></g></g></g><g fill="#ffffff" fill-opacity="1"><g transform="translate(303.337356, 776.805288)"><g><path d="M 14.03125 3.21875 L 2.640625 3.21875 L 2.640625 -43.6875 L 14.03125 -43.6875 L 31.078125 -11.203125 L 31.078125 -43.6875 L 40.46875 -43.6875 L 40.46875 3.21875 L 30.5625 3.21875 L 14.03125 -26.125 Z M 14.03125 3.21875 "/></g></g></g><g fill="#ffffff" fill-opacity="1"><g transform="translate(346.063081, 776.805288)"><g><path d="M 2.375 -1.671875 L 2.375 -12.03125 C 4.695312 -10.53125 7.257812 -9.222656 10.0625 -8.109375 C 12.875 -6.992188 15.953125 -6.4375 19.296875 -6.4375 C 20.460938 -6.4375 21.59375 -6.507812 22.6875 -6.65625 C 23.78125 -6.8125 24.765625 -7.046875 25.640625 -7.359375 C 26.515625 -7.679688 27.242188 -8.117188 27.828125 -8.671875 C 28.410156 -9.234375 28.765625 -9.945312 28.890625 -10.8125 C 29.015625 -11.84375 28.765625 -12.734375 28.140625 -13.484375 C 27.523438 -14.234375 26.765625 -14.863281 25.859375 -15.375 C 24.960938 -15.894531 24.019531 -16.3125 23.03125 -16.625 C 22.050781 -16.945312 21.238281 -17.175781 20.59375 -17.3125 C 17.25 -18.164062 14.535156 -18.925781 12.453125 -19.59375 C 10.367188 -20.257812 9.023438 -20.765625 8.421875 -21.109375 C 4.429688 -23.335938 2.4375 -26.507812 2.4375 -30.625 C 2.4375 -32.8125 2.960938 -34.71875 4.015625 -36.34375 C 5.066406 -37.976562 6.425781 -39.34375 8.09375 -40.4375 C 9.769531 -41.53125 11.640625 -42.34375 13.703125 -42.875 C 15.765625 -43.414062 17.800781 -43.6875 19.8125 -43.6875 C 22.644531 -43.6875 25.390625 -43.3125 28.046875 -42.5625 C 30.710938 -41.8125 33.179688 -40.644531 35.453125 -39.0625 L 35.453125 -30.046875 C 34.554688 -30.816406 33.5625 -31.554688 32.46875 -32.265625 C 31.375 -32.972656 30.222656 -33.582031 29.015625 -34.09375 C 27.816406 -34.613281 26.570312 -35.007812 25.28125 -35.28125 C 24 -35.5625 22.734375 -35.640625 21.484375 -35.515625 C 19.390625 -35.304688 17.71875 -34.847656 16.46875 -34.140625 C 15.226562 -33.429688 14.609375 -32.257812 14.609375 -30.625 C 14.609375 -29.8125 14.972656 -29.082031 15.703125 -28.4375 C 16.429688 -27.789062 17.296875 -27.222656 18.296875 -26.734375 C 19.304688 -26.242188 20.316406 -25.828125 21.328125 -25.484375 C 22.335938 -25.140625 23.144531 -24.878906 23.75 -24.703125 C 25.9375 -24.066406 27.953125 -23.425781 29.796875 -22.78125 C 31.640625 -22.132812 33.222656 -21.304688 34.546875 -20.296875 C 35.878906 -19.285156 36.898438 -18 37.609375 -16.4375 C 38.316406 -14.875 38.628906 -12.867188 38.546875 -10.421875 C 38.453125 -7.972656 37.796875 -5.890625 36.578125 -4.171875 C 35.359375 -2.460938 33.828125 -1.0625 31.984375 0.03125 C 30.140625 1.125 28.125 1.925781 25.9375 2.4375 C 23.75 2.957031 21.664062 3.21875 19.6875 3.21875 C 16.8125 3.21875 13.828125 2.785156 10.734375 1.921875 C 7.648438 1.066406 4.863281 -0.128906 2.375 -1.671875 Z M 2.375 -1.671875 "/></g></g></g><g fill="#ffffff" fill-opacity="1"><g transform="translate(386.987112, 776.805288)"><g><path d="M 12.734375 -43.375 L 12.734375 -12.546875 C 12.734375 -11.941406 12.804688 -11.316406 12.953125 -10.671875 C 13.109375 -10.035156 13.390625 -9.425781 13.796875 -8.84375 C 14.203125 -8.269531 14.75 -7.800781 15.4375 -7.4375 C 16.125 -7.070312 17.023438 -6.890625 18.140625 -6.890625 L 24.578125 -6.890625 C 25.648438 -6.890625 26.550781 -7.070312 27.28125 -7.4375 C 28.007812 -7.800781 28.597656 -8.269531 29.046875 -8.84375 C 29.503906 -9.425781 29.828125 -10.070312 30.015625 -10.78125 C 30.210938 -11.488281 30.3125 -12.207031 30.3125 -12.9375 L 30.3125 -43.375 L 40.671875 -43.375 L 40.671875 -10.6875 C 40.671875 -8.238281 40.269531 -6.132812 39.46875 -4.375 C 38.675781 -2.613281 37.613281 -1.175781 36.28125 -0.0625 C 34.957031 1.050781 33.414062 1.875 31.65625 2.40625 C 29.894531 2.945312 28.03125 3.21875 26.0625 3.21875 L 17.5 3.21875 C 15.1875 3.21875 13.0625 2.84375 11.125 2.09375 C 9.195312 1.34375 7.554688 0.289062 6.203125 -1.0625 C 4.859375 -2.414062 3.84375 -4.015625 3.15625 -5.859375 C 2.46875 -7.703125 2.1875 -9.738281 2.3125 -11.96875 L 2.3125 -43.375 Z M 12.734375 -43.375 "/></g></g></g><g fill="#ffffff" fill-opacity="1"><g transform="translate(429.905868, 776.805288)"><g><path d="M 13.0625 -3.609375 L 34.421875 -3.609375 L 34.421875 3.28125 L 2.640625 3.28125 L 2.640625 -43.625 L 13.0625 -43.625 Z M 13.0625 -3.609375 "/></g></g></g><g fill="#ffffff" fill-opacity="1"><g transform="translate(465.939615, 776.805288)"><g><path d="M 1.09375 -43.6875 L 41.765625 -43.6875 L 41.765625 -33.78125 L 26.828125 -33.78125 L 26.828125 3.21875 L 16.859375 3.21875 L 16.859375 -33.78125 L 1.09375 -33.78125 Z M 1.09375 -43.6875 "/></g></g></g><g fill="#ffffff" fill-opacity="1"><g transform="translate(508.665341, 776.805288)"><g><path d="M 12.671875 3.21875 L 3.28125 3.21875 L 3.28125 -43.625 L 12.671875 -43.625 Z M 12.671875 3.21875 "/></g></g></g><g fill="#ffffff" fill-opacity="1"><g transform="translate(524.430091, 776.805288)"><g><path d="M 14.03125 3.21875 L 2.640625 3.21875 L 2.640625 -43.6875 L 14.03125 -43.6875 L 31.078125 -11.203125 L 31.078125 -43.6875 L 40.46875 -43.6875 L 40.46875 3.21875 L 30.5625 3.21875 L 14.03125 -26.125 Z M 14.03125 3.21875 "/></g></g></g><g fill="#ffffff" fill-opacity="1"><g transform="translate(567.155817, 776.805288)"><g><path d="M 38.484375 -21.6875 L 38.484375 -11.265625 C 38.484375 -6.628906 37.492188 -3.117188 35.515625 -0.734375 C 33.546875 1.640625 30.546875 3 26.515625 3.34375 C 24.960938 3.519531 23.40625 3.582031 21.84375 3.53125 C 20.28125 3.488281 18.507812 3.425781 16.53125 3.34375 C 14.769531 3.300781 13.03125 2.988281 11.3125 2.40625 C 9.601562 1.832031 8.070312 0.96875 6.71875 -0.1875 C 5.375 -1.351562 4.269531 -2.820312 3.40625 -4.59375 C 2.550781 -6.375 2.125 -8.53125 2.125 -11.0625 L 2.125 -28.890625 C 2.125 -30.953125 2.488281 -32.882812 3.21875 -34.6875 C 3.945312 -36.488281 5.007812 -38.039062 6.40625 -39.34375 C 7.800781 -40.65625 9.484375 -41.695312 11.453125 -42.46875 C 13.421875 -43.238281 15.671875 -43.625 18.203125 -43.625 L 22.78125 -43.625 C 24.882812 -43.625 26.757812 -43.363281 28.40625 -42.84375 C 30.0625 -42.332031 31.507812 -41.601562 32.75 -40.65625 C 33.988281 -39.71875 35.023438 -38.613281 35.859375 -37.34375 C 36.703125 -36.082031 37.378906 -34.679688 37.890625 -33.140625 L 28.765625 -30.375 C 28.503906 -30.925781 28.222656 -31.457031 27.921875 -31.96875 C 27.617188 -32.488281 27.242188 -32.929688 26.796875 -33.296875 C 26.347656 -33.660156 25.8125 -33.945312 25.1875 -34.15625 C 24.5625 -34.375 23.78125 -34.484375 22.84375 -34.484375 L 18.921875 -34.484375 C 16.597656 -34.484375 14.847656 -33.859375 13.671875 -32.609375 C 12.492188 -31.367188 11.90625 -29.894531 11.90625 -28.1875 L 11.90625 -12.03125 C 11.90625 -9.582031 12.460938 -7.75 13.578125 -6.53125 C 14.691406 -5.3125 16.28125 -4.703125 18.34375 -4.703125 L 22.71875 -4.703125 C 24.21875 -4.703125 25.40625 -4.914062 26.28125 -5.34375 C 27.164062 -5.769531 27.832031 -6.367188 28.28125 -7.140625 C 28.726562 -7.910156 29.015625 -8.820312 29.140625 -9.875 C 29.273438 -10.925781 29.34375 -12.070312 29.34375 -13.3125 L 29.28125 -16.21875 L 21.6875 -16.21875 L 21.6875 -21.6875 Z M 38.484375 -21.6875 "/></g></g></g></svg>