<svg xmlns="http://www.w3.org/2000/svg" xmlns:xlink="http://www.w3.org/1999/xlink" width="1366" zoomAndPan="magnify" viewBox="0 0 1024.5 800.25" height="1067" preserveAspectRatio="xMidYMid meet" version="1.0"><defs><g/><clipPath id="250cf39cbb"><path d="M 1 0 L 836 0 L 836 799.210938 L 1 799.210938 Z M 1 0 " clip-rule="nonzero"/></clipPath></defs><g clip-path="url(#250cf39cbb)"><path fill="#00bf63" d="M 426.34375 483.335938 L 156.515625 279.34375 L 156.515625 799.46875 L 1.21875 799.46875 L 1.21875 -16.746094 L 259.011719 178.152344 L 259.039062 178.152344 L 426.34375 304.648438 L 835.886719 -10.855469 L 835.886719 173.699219 L 544.503906 394.003906 L 508.675781 421.09375 Z M 680.136719 565.214844 L 680.589844 799.492188 L 835.886719 799.492188 L 835.433594 447.808594 Z M 680.136719 565.214844 " fill-opacity="1" fill-rule="nonzero"/></g><path fill="#000000" d="M 786.414062 257.867188 L 426.34375 530.113281 L 196.246094 356.136719 L 196.246094 534.824219 L 426.34375 708.800781 L 1022.757812 257.867188 Z M 786.414062 257.867188 " fill-opacity="1" fill-rule="nonzero"/><g fill="#000000" fill-opacity="0.4"><g transform="translate(314.820488, 63.004522)"><g><path d="M 33.328125 -43.625 L 42.921875 -43.625 L 42.921875 3.21875 L 33.328125 3.21875 L 33.328125 -31.40625 L 23.15625 -22.453125 L 13.125 -31.328125 L 13.125 3.21875 L 2.3125 3.21875 L 2.3125 -43.6875 L 13.125 -43.6875 L 23.296875 -32.296875 Z M 33.328125 -43.625 "/></g></g></g><g fill="#000000" fill-opacity="0.4"><g transform="translate(360.377437, 63.004522)"><g><path d="M 11.390625 3.21875 L 1.03125 3.21875 L 17.765625 -43.6875 L 26.828125 -43.6875 L 43.4375 3.21875 L 34.875 3.21875 L 31.984375 -6.5 L 14.609375 -6.5 Z M 17.1875 -12.03125 L 29.21875 -12.03125 L 23.359375 -31.921875 L 23.234375 -31.921875 Z M 17.1875 -12.03125 "/></g></g></g><g fill="#000000" fill-opacity="0.4"><g transform="translate(405.41961, 63.004522)"><g><path d="M 2.640625 -43.625 L 22.0625 -43.625 C 23.863281 -43.625 25.726562 -43.410156 27.65625 -42.984375 C 29.59375 -42.554688 31.363281 -41.769531 32.96875 -40.625 C 34.582031 -39.488281 35.90625 -37.9375 36.9375 -35.96875 C 37.96875 -34 38.457031 -31.46875 38.40625 -28.375 L 38.34375 -12.875 C 38.34375 -10.039062 37.796875 -7.601562 36.703125 -5.5625 C 35.609375 -3.53125 34.222656 -1.867188 32.546875 -0.578125 C 30.878906 0.703125 29.023438 1.65625 26.984375 2.28125 C 24.953125 2.90625 22.945312 3.21875 20.96875 3.21875 L 2.640625 3.21875 Z M 30.234375 -26 C 30.234375 -28.914062 29.515625 -31.046875 28.078125 -32.390625 C 26.648438 -33.742188 24.15625 -34.421875 20.59375 -34.421875 L 13 -34.421875 L 13 -6.953125 L 21.171875 -6.953125 C 22.328125 -6.953125 23.453125 -7.066406 24.546875 -7.296875 C 25.640625 -7.535156 26.601562 -7.929688 27.4375 -8.484375 C 28.28125 -9.046875 28.957031 -9.796875 29.46875 -10.734375 C 29.976562 -11.679688 30.234375 -12.882812 30.234375 -14.34375 Z M 30.234375 -26 "/></g></g></g><g fill="#000000" fill-opacity="0.4"><g transform="translate(446.536683, 63.004522)"><g><path d="M 12.671875 3.21875 L 3.28125 3.21875 L 3.28125 -43.625 L 12.671875 -43.625 Z M 12.671875 3.21875 "/></g></g></g><g fill="#000000" fill-opacity="0.4"><g transform="translate(462.301444, 63.004522)"><g><path d="M 2.375 -1.671875 L 2.375 -12.03125 C 4.695312 -10.53125 7.257812 -9.222656 10.0625 -8.109375 C 12.875 -6.992188 15.953125 -6.4375 19.296875 -6.4375 C 20.460938 -6.4375 21.59375 -6.507812 22.6875 -6.65625 C 23.78125 -6.8125 24.765625 -7.046875 25.640625 -7.359375 C 26.515625 -7.679688 27.242188 -8.117188 27.828125 -8.671875 C 28.410156 -9.234375 28.765625 -9.945312 28.890625 -10.8125 C 29.015625 -11.84375 28.765625 -12.734375 28.140625 -13.484375 C 27.523438 -14.234375 26.765625 -14.863281 25.859375 -15.375 C 24.960938 -15.894531 24.019531 -16.3125 23.03125 -16.625 C 22.050781 -16.945312 21.238281 -17.175781 20.59375 -17.3125 C 17.25 -18.164062 14.535156 -18.925781 12.453125 -19.59375 C 10.367188 -20.257812 9.023438 -20.765625 8.421875 -21.109375 C 4.429688 -23.335938 2.4375 -26.507812 2.4375 -30.625 C 2.4375 -32.8125 2.960938 -34.71875 4.015625 -36.34375 C 5.066406 -37.976562 6.425781 -39.34375 8.09375 -40.4375 C 9.769531 -41.53125 11.640625 -42.34375 13.703125 -42.875 C 15.765625 -43.414062 17.800781 -43.6875 19.8125 -43.6875 C 22.644531 -43.6875 25.390625 -43.3125 28.046875 -42.5625 C 30.710938 -41.8125 33.179688 -40.644531 35.453125 -39.0625 L 35.453125 -30.046875 C 34.554688 -30.816406 33.5625 -31.554688 32.46875 -32.265625 C 31.375 -32.972656 30.222656 -33.582031 29.015625 -34.09375 C 27.816406 -34.613281 26.570312 -35.007812 25.28125 -35.28125 C 24 -35.5625 22.734375 -35.640625 21.484375 -35.515625 C 19.390625 -35.304688 17.71875 -34.847656 16.46875 -34.140625 C 15.226562 -33.429688 14.609375 -32.257812 14.609375 -30.625 C 14.609375 -29.8125 14.972656 -29.082031 15.703125 -28.4375 C 16.429688 -27.789062 17.296875 -27.222656 18.296875 -26.734375 C 19.304688 -26.242188 20.316406 -25.828125 21.328125 -25.484375 C 22.335938 -25.140625 23.144531 -24.878906 23.75 -24.703125 C 25.9375 -24.066406 27.953125 -23.425781 29.796875 -22.78125 C 31.640625 -22.132812 33.222656 -21.304688 34.546875 -20.296875 C 35.878906 -19.285156 36.898438 -18 37.609375 -16.4375 C 38.316406 -14.875 38.628906 -12.867188 38.546875 -10.421875 C 38.453125 -7.972656 37.796875 -5.890625 36.578125 -4.171875 C 35.359375 -2.460938 33.828125 -1.0625 31.984375 0.03125 C 30.140625 1.125 28.125 1.925781 25.9375 2.4375 C 23.75 2.957031 21.664062 3.21875 19.6875 3.21875 C 16.8125 3.21875 13.828125 2.785156 10.734375 1.921875 C 7.648438 1.066406 4.863281 -0.128906 2.375 -1.671875 Z M 2.375 -1.671875 "/></g></g></g><g fill="#000000" fill-opacity="0.4"><g transform="translate(503.225475, 63.004522)"><g><path d="M 11.390625 3.21875 L 1.03125 3.21875 L 17.765625 -43.6875 L 26.828125 -43.6875 L 43.4375 3.21875 L 34.875 3.21875 L 31.984375 -6.5 L 14.609375 -6.5 Z M 17.1875 -12.03125 L 29.21875 -12.03125 L 23.359375 -31.921875 L 23.234375 -31.921875 Z M 17.1875 -12.03125 "/></g></g></g><g fill="#000000" fill-opacity="1"><g transform="translate(311.976302, 60.160332)"><g><path d="M 33.328125 -43.625 L 42.921875 -43.625 L 42.921875 3.21875 L 33.328125 3.21875 L 33.328125 -31.40625 L 23.15625 -22.453125 L 13.125 -31.328125 L 13.125 3.21875 L 2.3125 3.21875 L 2.3125 -43.6875 L 13.125 -43.6875 L 23.296875 -32.296875 Z M 33.328125 -43.625 "/></g></g></g><g fill="#000000" fill-opacity="1"><g transform="translate(357.533252, 60.160332)"><g><path d="M 11.390625 3.21875 L 1.03125 3.21875 L 17.765625 -43.6875 L 26.828125 -43.6875 L 43.4375 3.21875 L 34.875 3.21875 L 31.984375 -6.5 L 14.609375 -6.5 Z M 17.1875 -12.03125 L 29.21875 -12.03125 L 23.359375 -31.921875 L 23.234375 -31.921875 Z M 17.1875 -12.03125 "/></g></g></g><g fill="#000000" fill-opacity="1"><g transform="translate(402.575425, 60.160332)"><g><path d="M 2.640625 -43.625 L 22.0625 -43.625 C 23.863281 -43.625 25.726562 -43.410156 27.65625 -42.984375 C 29.59375 -42.554688 31.363281 -41.769531 32.96875 -40.625 C 34.582031 -39.488281 35.90625 -37.9375 36.9375 -35.96875 C 37.96875 -34 38.457031 -31.46875 38.40625 -28.375 L 38.34375 -12.875 C 38.34375 -10.039062 37.796875 -7.601562 36.703125 -5.5625 C 35.609375 -3.53125 34.222656 -1.867188 32.546875 -0.578125 C 30.878906 0.703125 29.023438 1.65625 26.984375 2.28125 C 24.953125 2.90625 22.945312 3.21875 20.96875 3.21875 L 2.640625 3.21875 Z M 30.234375 -26 C 30.234375 -28.914062 29.515625 -31.046875 28.078125 -32.390625 C 26.648438 -33.742188 24.15625 -34.421875 20.59375 -34.421875 L 13 -34.421875 L 13 -6.953125 L 21.171875 -6.953125 C 22.328125 -6.953125 23.453125 -7.066406 24.546875 -7.296875 C 25.640625 -7.535156 26.601562 -7.929688 27.4375 -8.484375 C 28.28125 -9.046875 28.957031 -9.796875 29.46875 -10.734375 C 29.976562 -11.679688 30.234375 -12.882812 30.234375 -14.34375 Z M 30.234375 -26 "/></g></g></g><g fill="#000000" fill-opacity="1"><g transform="translate(443.692497, 60.160332)"><g><path d="M 12.671875 3.21875 L 3.28125 3.21875 L 3.28125 -43.625 L 12.671875 -43.625 Z M 12.671875 3.21875 "/></g></g></g><g fill="#000000" fill-opacity="1"><g transform="translate(459.457259, 60.160332)"><g><path d="M 2.375 -1.671875 L 2.375 -12.03125 C 4.695312 -10.53125 7.257812 -9.222656 10.0625 -8.109375 C 12.875 -6.992188 15.953125 -6.4375 19.296875 -6.4375 C 20.460938 -6.4375 21.59375 -6.507812 22.6875 -6.65625 C 23.78125 -6.8125 24.765625 -7.046875 25.640625 -7.359375 C 26.515625 -7.679688 27.242188 -8.117188 27.828125 -8.671875 C 28.410156 -9.234375 28.765625 -9.945312 28.890625 -10.8125 C 29.015625 -11.84375 28.765625 -12.734375 28.140625 -13.484375 C 27.523438 -14.234375 26.765625 -14.863281 25.859375 -15.375 C 24.960938 -15.894531 24.019531 -16.3125 23.03125 -16.625 C 22.050781 -16.945312 21.238281 -17.175781 20.59375 -17.3125 C 17.25 -18.164062 14.535156 -18.925781 12.453125 -19.59375 C 10.367188 -20.257812 9.023438 -20.765625 8.421875 -21.109375 C 4.429688 -23.335938 2.4375 -26.507812 2.4375 -30.625 C 2.4375 -32.8125 2.960938 -34.71875 4.015625 -36.34375 C 5.066406 -37.976562 6.425781 -39.34375 8.09375 -40.4375 C 9.769531 -41.53125 11.640625 -42.34375 13.703125 -42.875 C 15.765625 -43.414062 17.800781 -43.6875 19.8125 -43.6875 C 22.644531 -43.6875 25.390625 -43.3125 28.046875 -42.5625 C 30.710938 -41.8125 33.179688 -40.644531 35.453125 -39.0625 L 35.453125 -30.046875 C 34.554688 -30.816406 33.5625 -31.554688 32.46875 -32.265625 C 31.375 -32.972656 30.222656 -33.582031 29.015625 -34.09375 C 27.816406 -34.613281 26.570312 -35.007812 25.28125 -35.28125 C 24 -35.5625 22.734375 -35.640625 21.484375 -35.515625 C 19.390625 -35.304688 17.71875 -34.847656 16.46875 -34.140625 C 15.226562 -33.429688 14.609375 -32.257812 14.609375 -30.625 C 14.609375 -29.8125 14.972656 -29.082031 15.703125 -28.4375 C 16.429688 -27.789062 17.296875 -27.222656 18.296875 -26.734375 C 19.304688 -26.242188 20.316406 -25.828125 21.328125 -25.484375 C 22.335938 -25.140625 23.144531 -24.878906 23.75 -24.703125 C 25.9375 -24.066406 27.953125 -23.425781 29.796875 -22.78125 C 31.640625 -22.132812 33.222656 -21.304688 34.546875 -20.296875 C 35.878906 -19.285156 36.898438 -18 37.609375 -16.4375 C 38.316406 -14.875 38.628906 -12.867188 38.546875 -10.421875 C 38.453125 -7.972656 37.796875 -5.890625 36.578125 -4.171875 C 35.359375 -2.460938 33.828125 -1.0625 31.984375 0.03125 C 30.140625 1.125 28.125 1.925781 25.9375 2.4375 C 23.75 2.957031 21.664062 3.21875 19.6875 3.21875 C 16.8125 3.21875 13.828125 2.785156 10.734375 1.921875 C 7.648438 1.066406 4.863281 -0.128906 2.375 -1.671875 Z M 2.375 -1.671875 "/></g></g></g><g fill="#000000" fill-opacity="1"><g transform="translate(500.38129, 60.160332)"><g><path d="M 11.390625 3.21875 L 1.03125 3.21875 L 17.765625 -43.6875 L 26.828125 -43.6875 L 43.4375 3.21875 L 34.875 3.21875 L 31.984375 -6.5 L 14.609375 -6.5 Z M 17.1875 -12.03125 L 29.21875 -12.03125 L 23.359375 -31.921875 L 23.234375 -31.921875 Z M 17.1875 -12.03125 "/></g></g></g><g fill="#000000" fill-opacity="0.4"><g transform="translate(265.6709, 742.038569)"><g><path d="M 1.328125 -9.421875 C 1.328125 -11.253906 1.71875 -12.894531 2.5 -14.34375 C 3.289062 -15.789062 4.40625 -16.941406 5.84375 -17.796875 C 7.28125 -18.648438 9 -19.078125 11 -19.078125 C 12.757812 -19.078125 14.296875 -18.773438 15.609375 -18.171875 C 16.929688 -17.566406 17.992188 -16.695312 18.796875 -15.5625 C 19.609375 -14.4375 20.101562 -13.101562 20.28125 -11.5625 L 16.015625 -11.5625 C 15.796875 -12.800781 15.234375 -13.738281 14.328125 -14.375 C 13.421875 -15.019531 12.328125 -15.34375 11.046875 -15.34375 C 9.410156 -15.34375 8.09375 -14.835938 7.09375 -13.828125 C 6.101562 -12.828125 5.609375 -11.359375 5.609375 -9.421875 C 5.609375 -7.484375 6.101562 -6.003906 7.09375 -4.984375 C 8.09375 -3.972656 9.410156 -3.46875 11.046875 -3.46875 C 12.328125 -3.46875 13.421875 -3.789062 14.328125 -4.4375 C 15.234375 -5.09375 15.796875 -6.039062 16.015625 -7.28125 L 20.28125 -7.28125 C 20.101562 -5.738281 19.609375 -4.398438 18.796875 -3.265625 C 17.992188 -2.140625 16.929688 -1.269531 15.609375 -0.65625 C 14.296875 -0.0390625 12.757812 0.265625 11 0.265625 C 9 0.265625 7.28125 -0.160156 5.84375 -1.015625 C 4.40625 -1.867188 3.289062 -3.023438 2.5 -4.484375 C 1.71875 -5.941406 1.328125 -7.585938 1.328125 -9.421875 Z M 1.328125 -9.421875 "/></g></g></g><g fill="#000000" fill-opacity="0.4"><g transform="translate(298.066981, 742.038569)"><g><path d="M 1.328125 -9.421875 C 1.328125 -11.253906 1.710938 -12.894531 2.484375 -14.34375 C 3.265625 -15.789062 4.367188 -16.941406 5.796875 -17.796875 C 7.234375 -18.648438 8.945312 -19.078125 10.9375 -19.078125 C 12.9375 -19.078125 14.644531 -18.648438 16.0625 -17.796875 C 17.488281 -16.941406 18.585938 -15.789062 19.359375 -14.34375 C 20.128906 -12.894531 20.515625 -11.253906 20.515625 -9.421875 C 20.515625 -7.585938 20.128906 -5.941406 19.359375 -4.484375 C 18.585938 -3.023438 17.488281 -1.867188 16.0625 -1.015625 C 14.644531 -0.160156 12.9375 0.265625 10.9375 0.265625 C 8.945312 0.265625 7.234375 -0.160156 5.796875 -1.015625 C 4.367188 -1.867188 3.265625 -3.023438 2.484375 -4.484375 C 1.710938 -5.941406 1.328125 -7.585938 1.328125 -9.421875 Z M 5.609375 -9.421875 C 5.609375 -7.609375 6.050781 -6.160156 6.9375 -5.078125 C 7.820312 -4.003906 9.15625 -3.46875 10.9375 -3.46875 C 12.71875 -3.46875 14.046875 -4.003906 14.921875 -5.078125 C 15.804688 -6.160156 16.25 -7.609375 16.25 -9.421875 C 16.25 -11.210938 15.804688 -12.644531 14.921875 -13.71875 C 14.046875 -14.800781 12.71875 -15.34375 10.9375 -15.34375 C 9.15625 -15.34375 7.820312 -14.800781 6.9375 -13.71875 C 6.050781 -12.644531 5.609375 -11.210938 5.609375 -9.421875 Z M 5.609375 -9.421875 "/></g></g></g><g fill="#000000" fill-opacity="0.4"><g transform="translate(330.703198, 742.038569)"><g><path d="M 15.953125 -3.734375 L 15.953125 -18.8125 L 20.234375 -18.8125 L 20.234375 0 L 11.828125 0 L 7.078125 -15.078125 L 5.875 -15.078125 L 5.875 0 L 1.59375 0 L 1.59375 -18.8125 L 10 -18.8125 L 14.765625 -3.734375 Z M 15.953125 -3.734375 "/></g></g></g><g fill="#000000" fill-opacity="0.4"><g transform="translate(363.312729, 742.038569)"><g><path d="M 18.171875 -5.171875 C 18.171875 -4.109375 17.898438 -3.164062 17.359375 -2.34375 C 16.816406 -1.53125 15.957031 -0.890625 14.78125 -0.421875 C 13.613281 0.0351562 12.054688 0.265625 10.109375 0.265625 C 7.847656 0.265625 6.035156 -0.03125 4.671875 -0.625 C 3.316406 -1.21875 2.332031 -2.078125 1.71875 -3.203125 C 1.101562 -4.328125 0.796875 -5.679688 0.796875 -7.265625 L 5.078125 -7.265625 C 5.078125 -5.816406 5.472656 -4.820312 6.265625 -4.28125 C 7.054688 -3.738281 8.382812 -3.46875 10.25 -3.46875 C 11.613281 -3.46875 12.5625 -3.617188 13.09375 -3.921875 C 13.632812 -4.222656 13.90625 -4.625 13.90625 -5.125 C 13.90625 -5.582031 13.671875 -5.96875 13.203125 -6.28125 C 12.742188 -6.59375 12.132812 -6.882812 11.375 -7.15625 C 10.625 -7.4375 9.785156 -7.726562 8.859375 -8.03125 C 7.859375 -8.375 6.921875 -8.707031 6.046875 -9.03125 C 5.179688 -9.363281 4.421875 -9.75 3.765625 -10.1875 C 3.109375 -10.632812 2.59375 -11.171875 2.21875 -11.796875 C 1.84375 -12.421875 1.65625 -13.195312 1.65625 -14.125 C 1.65625 -15.71875 2.28125 -16.941406 3.53125 -17.796875 C 4.789062 -18.648438 6.628906 -19.078125 9.046875 -19.078125 C 10.960938 -19.078125 12.539062 -18.78125 13.78125 -18.1875 C 15.019531 -17.59375 15.929688 -16.789062 16.515625 -15.78125 C 17.109375 -14.78125 17.40625 -13.65625 17.40625 -12.40625 L 13.125 -12.40625 C 13.125 -13.175781 12.945312 -13.773438 12.59375 -14.203125 C 12.238281 -14.628906 11.753906 -14.925781 11.140625 -15.09375 C 10.523438 -15.257812 9.828125 -15.34375 9.046875 -15.34375 C 8.085938 -15.34375 7.328125 -15.226562 6.765625 -15 C 6.203125 -14.78125 5.921875 -14.429688 5.921875 -13.953125 C 5.921875 -13.671875 6 -13.429688 6.15625 -13.234375 C 6.320312 -13.035156 6.65625 -12.828125 7.15625 -12.609375 C 7.65625 -12.390625 8.398438 -12.109375 9.390625 -11.765625 C 10.085938 -11.535156 10.832031 -11.28125 11.625 -11 C 12.414062 -10.726562 13.195312 -10.414062 13.96875 -10.0625 C 14.738281 -9.71875 15.441406 -9.316406 16.078125 -8.859375 C 16.710938 -8.398438 17.21875 -7.867188 17.59375 -7.265625 C 17.976562 -6.660156 18.171875 -5.960938 18.171875 -5.171875 Z M 18.171875 -5.171875 "/></g></g></g><g fill="#000000" fill-opacity="0.4"><g transform="translate(393.067278, 742.038569)"><g><path d="M 1.0625 -6.984375 L 1.0625 -18.8125 L 5.34375 -18.8125 L 5.34375 -8.890625 C 5.34375 -8.046875 5.378906 -7.289062 5.453125 -6.625 C 5.535156 -5.957031 5.707031 -5.390625 5.96875 -4.921875 C 6.238281 -4.453125 6.660156 -4.09375 7.234375 -3.84375 C 7.804688 -3.59375 8.578125 -3.46875 9.546875 -3.46875 C 10.867188 -3.46875 11.828125 -3.6875 12.421875 -4.125 C 13.015625 -4.5625 13.390625 -5.179688 13.546875 -5.984375 C 13.710938 -6.796875 13.796875 -7.765625 13.796875 -8.890625 L 13.796875 -18.8125 L 18.0625 -18.8125 L 18.0625 -6.984375 C 18.0625 -4.640625 17.34375 -2.84375 15.90625 -1.59375 C 14.46875 -0.351562 12.347656 0.265625 9.546875 0.265625 C 6.753906 0.265625 4.640625 -0.351562 3.203125 -1.59375 C 1.773438 -2.84375 1.0625 -4.640625 1.0625 -6.984375 Z M 1.0625 -6.984375 "/></g></g></g><g fill="#000000" fill-opacity="0.4"><g transform="translate(422.981918, 742.038569)"><g><path d="M 15.03125 0 L 3.890625 0.265625 C 3.160156 0.285156 2.59375 0.101562 2.1875 -0.28125 C 1.789062 -0.675781 1.59375 -1.238281 1.59375 -1.96875 L 1.59375 -18.8125 L 5.875 -18.8125 L 5.875 -3.46875 L 15.03125 -3.734375 Z M 15.03125 0 "/></g></g></g><g fill="#000000" fill-opacity="0.4"><g transform="translate(449.321157, 742.038569)"><g><path d="M 0.796875 -18.8125 L 17.375 -18.8125 L 17.375 -15.078125 L 11.234375 -15.078125 L 11.234375 0 L 6.96875 0 L 6.96875 -15.078125 L 0.796875 -15.078125 Z M 0.796875 -18.8125 "/></g></g></g><g fill="#000000" fill-opacity="0.4"><g transform="translate(478.275255, 742.038569)"><g><path d="M 20.203125 0 L 15.875 0 L 14.328125 -4.703125 L 6.40625 -4.703125 L 4.859375 0 L 0.53125 0 L 6.890625 -18.8125 L 13.828125 -18.8125 Z M 9.828125 -15.078125 L 7.625 -8.4375 L 13.078125 -8.4375 L 10.890625 -15.078125 Z M 9.828125 -15.078125 "/></g></g></g><g fill="#000000" fill-opacity="0.4"><g transform="translate(509.790807, 742.038569)"><g><path d="M 15.953125 -3.734375 L 15.953125 -18.8125 L 20.234375 -18.8125 L 20.234375 0 L 11.828125 0 L 7.078125 -15.078125 L 5.875 -15.078125 L 5.875 0 L 1.59375 0 L 1.59375 -18.8125 L 10 -18.8125 L 14.765625 -3.734375 Z M 15.953125 -3.734375 "/></g></g></g><g fill="#000000" fill-opacity="0.4"><g transform="translate(542.40035, 742.038569)"><g><path d="M 1.328125 -9.421875 C 1.328125 -11.253906 1.71875 -12.894531 2.5 -14.34375 C 3.289062 -15.789062 4.40625 -16.941406 5.84375 -17.796875 C 7.28125 -18.648438 9 -19.078125 11 -19.078125 C 12.757812 -19.078125 14.296875 -18.773438 15.609375 -18.171875 C 16.929688 -17.566406 17.992188 -16.695312 18.796875 -15.5625 C 19.609375 -14.4375 20.101562 -13.101562 20.28125 -11.5625 L 16.015625 -11.5625 C 15.796875 -12.800781 15.234375 -13.738281 14.328125 -14.375 C 13.421875 -15.019531 12.328125 -15.34375 11.046875 -15.34375 C 9.410156 -15.34375 8.09375 -14.835938 7.09375 -13.828125 C 6.101562 -12.828125 5.609375 -11.359375 5.609375 -9.421875 C 5.609375 -7.484375 6.101562 -6.003906 7.09375 -4.984375 C 8.09375 -3.972656 9.410156 -3.46875 11.046875 -3.46875 C 12.328125 -3.46875 13.421875 -3.789062 14.328125 -4.4375 C 15.234375 -5.09375 15.796875 -6.039062 16.015625 -7.28125 L 20.28125 -7.28125 C 20.101562 -5.738281 19.609375 -4.398438 18.796875 -3.265625 C 17.992188 -2.140625 16.929688 -1.269531 15.609375 -0.65625 C 14.296875 -0.0390625 12.757812 0.265625 11 0.265625 C 9 0.265625 7.28125 -0.160156 5.84375 -1.015625 C 4.40625 -1.867188 3.289062 -3.023438 2.5 -4.484375 C 1.71875 -5.941406 1.328125 -7.585938 1.328125 -9.421875 Z M 1.328125 -9.421875 "/></g></g></g><g fill="#000000" fill-opacity="0.4"><g transform="translate(574.796432, 742.038569)"><g><path d="M 10.171875 -10.96875 L 14.203125 -18.8125 L 18.765625 -18.8125 L 11.765625 -6.0625 L 11.765625 0 L 7.5 0 L 7.5 -6.0625 L 0.53125 -18.8125 L 5.09375 -18.8125 L 9.09375 -10.96875 L 9.09375 -8.5625 L 10.171875 -8.5625 Z M 10.171875 -10.96875 "/></g></g></g><g fill="#000000" fill-opacity="1"><g transform="translate(264.491268, 740.858947)"><g><path d="M 1.328125 -9.421875 C 1.328125 -11.253906 1.71875 -12.894531 2.5 -14.34375 C 3.289062 -15.789062 4.40625 -16.941406 5.84375 -17.796875 C 7.28125 -18.648438 9 -19.078125 11 -19.078125 C 12.757812 -19.078125 14.296875 -18.773438 15.609375 -18.171875 C 16.929688 -17.566406 17.992188 -16.695312 18.796875 -15.5625 C 19.609375 -14.4375 20.101562 -13.101562 20.28125 -11.5625 L 16.015625 -11.5625 C 15.796875 -12.800781 15.234375 -13.738281 14.328125 -14.375 C 13.421875 -15.019531 12.328125 -15.34375 11.046875 -15.34375 C 9.410156 -15.34375 8.09375 -14.835938 7.09375 -13.828125 C 6.101562 -12.828125 5.609375 -11.359375 5.609375 -9.421875 C 5.609375 -7.484375 6.101562 -6.003906 7.09375 -4.984375 C 8.09375 -3.972656 9.410156 -3.46875 11.046875 -3.46875 C 12.328125 -3.46875 13.421875 -3.789062 14.328125 -4.4375 C 15.234375 -5.09375 15.796875 -6.039062 16.015625 -7.28125 L 20.28125 -7.28125 C 20.101562 -5.738281 19.609375 -4.398438 18.796875 -3.265625 C 17.992188 -2.140625 16.929688 -1.269531 15.609375 -0.65625 C 14.296875 -0.0390625 12.757812 0.265625 11 0.265625 C 9 0.265625 7.28125 -0.160156 5.84375 -1.015625 C 4.40625 -1.867188 3.289062 -3.023438 2.5 -4.484375 C 1.71875 -5.941406 1.328125 -7.585938 1.328125 -9.421875 Z M 1.328125 -9.421875 "/></g></g></g><g fill="#000000" fill-opacity="1"><g transform="translate(296.887349, 740.858947)"><g><path d="M 1.328125 -9.421875 C 1.328125 -11.253906 1.710938 -12.894531 2.484375 -14.34375 C 3.265625 -15.789062 4.367188 -16.941406 5.796875 -17.796875 C 7.234375 -18.648438 8.945312 -19.078125 10.9375 -19.078125 C 12.9375 -19.078125 14.644531 -18.648438 16.0625 -17.796875 C 17.488281 -16.941406 18.585938 -15.789062 19.359375 -14.34375 C 20.128906 -12.894531 20.515625 -11.253906 20.515625 -9.421875 C 20.515625 -7.585938 20.128906 -5.941406 19.359375 -4.484375 C 18.585938 -3.023438 17.488281 -1.867188 16.0625 -1.015625 C 14.644531 -0.160156 12.9375 0.265625 10.9375 0.265625 C 8.945312 0.265625 7.234375 -0.160156 5.796875 -1.015625 C 4.367188 -1.867188 3.265625 -3.023438 2.484375 -4.484375 C 1.710938 -5.941406 1.328125 -7.585938 1.328125 -9.421875 Z M 5.609375 -9.421875 C 5.609375 -7.609375 6.050781 -6.160156 6.9375 -5.078125 C 7.820312 -4.003906 9.15625 -3.46875 10.9375 -3.46875 C 12.71875 -3.46875 14.046875 -4.003906 14.921875 -5.078125 C 15.804688 -6.160156 16.25 -7.609375 16.25 -9.421875 C 16.25 -11.210938 15.804688 -12.644531 14.921875 -13.71875 C 14.046875 -14.800781 12.71875 -15.34375 10.9375 -15.34375 C 9.15625 -15.34375 7.820312 -14.800781 6.9375 -13.71875 C 6.050781 -12.644531 5.609375 -11.210938 5.609375 -9.421875 Z M 5.609375 -9.421875 "/></g></g></g><g fill="#000000" fill-opacity="1"><g transform="translate(329.523566, 740.858947)"><g><path d="M 15.953125 -3.734375 L 15.953125 -18.8125 L 20.234375 -18.8125 L 20.234375 0 L 11.828125 0 L 7.078125 -15.078125 L 5.875 -15.078125 L 5.875 0 L 1.59375 0 L 1.59375 -18.8125 L 10 -18.8125 L 14.765625 -3.734375 Z M 15.953125 -3.734375 "/></g></g></g><g fill="#000000" fill-opacity="1"><g transform="translate(362.133097, 740.858947)"><g><path d="M 18.171875 -5.171875 C 18.171875 -4.109375 17.898438 -3.164062 17.359375 -2.34375 C 16.816406 -1.53125 15.957031 -0.890625 14.78125 -0.421875 C 13.613281 0.0351562 12.054688 0.265625 10.109375 0.265625 C 7.847656 0.265625 6.035156 -0.03125 4.671875 -0.625 C 3.316406 -1.21875 2.332031 -2.078125 1.71875 -3.203125 C 1.101562 -4.328125 0.796875 -5.679688 0.796875 -7.265625 L 5.078125 -7.265625 C 5.078125 -5.816406 5.472656 -4.820312 6.265625 -4.28125 C 7.054688 -3.738281 8.382812 -3.46875 10.25 -3.46875 C 11.613281 -3.46875 12.5625 -3.617188 13.09375 -3.921875 C 13.632812 -4.222656 13.90625 -4.625 13.90625 -5.125 C 13.90625 -5.582031 13.671875 -5.96875 13.203125 -6.28125 C 12.742188 -6.59375 12.132812 -6.882812 11.375 -7.15625 C 10.625 -7.4375 9.785156 -7.726562 8.859375 -8.03125 C 7.859375 -8.375 6.921875 -8.707031 6.046875 -9.03125 C 5.179688 -9.363281 4.421875 -9.75 3.765625 -10.1875 C 3.109375 -10.632812 2.59375 -11.171875 2.21875 -11.796875 C 1.84375 -12.421875 1.65625 -13.195312 1.65625 -14.125 C 1.65625 -15.71875 2.28125 -16.941406 3.53125 -17.796875 C 4.789062 -18.648438 6.628906 -19.078125 9.046875 -19.078125 C 10.960938 -19.078125 12.539062 -18.78125 13.78125 -18.1875 C 15.019531 -17.59375 15.929688 -16.789062 16.515625 -15.78125 C 17.109375 -14.78125 17.40625 -13.65625 17.40625 -12.40625 L 13.125 -12.40625 C 13.125 -13.175781 12.945312 -13.773438 12.59375 -14.203125 C 12.238281 -14.628906 11.753906 -14.925781 11.140625 -15.09375 C 10.523438 -15.257812 9.828125 -15.34375 9.046875 -15.34375 C 8.085938 -15.34375 7.328125 -15.226562 6.765625 -15 C 6.203125 -14.78125 5.921875 -14.429688 5.921875 -13.953125 C 5.921875 -13.671875 6 -13.429688 6.15625 -13.234375 C 6.320312 -13.035156 6.65625 -12.828125 7.15625 -12.609375 C 7.65625 -12.390625 8.398438 -12.109375 9.390625 -11.765625 C 10.085938 -11.535156 10.832031 -11.28125 11.625 -11 C 12.414062 -10.726562 13.195312 -10.414062 13.96875 -10.0625 C 14.738281 -9.71875 15.441406 -9.316406 16.078125 -8.859375 C 16.710938 -8.398438 17.21875 -7.867188 17.59375 -7.265625 C 17.976562 -6.660156 18.171875 -5.960938 18.171875 -5.171875 Z M 18.171875 -5.171875 "/></g></g></g><g fill="#000000" fill-opacity="1"><g transform="translate(391.887646, 740.858947)"><g><path d="M 1.0625 -6.984375 L 1.0625 -18.8125 L 5.34375 -18.8125 L 5.34375 -8.890625 C 5.34375 -8.046875 5.378906 -7.289062 5.453125 -6.625 C 5.535156 -5.957031 5.707031 -5.390625 5.96875 -4.921875 C 6.238281 -4.453125 6.660156 -4.09375 7.234375 -3.84375 C 7.804688 -3.59375 8.578125 -3.46875 9.546875 -3.46875 C 10.867188 -3.46875 11.828125 -3.6875 12.421875 -4.125 C 13.015625 -4.5625 13.390625 -5.179688 13.546875 -5.984375 C 13.710938 -6.796875 13.796875 -7.765625 13.796875 -8.890625 L 13.796875 -18.8125 L 18.0625 -18.8125 L 18.0625 -6.984375 C 18.0625 -4.640625 17.34375 -2.84375 15.90625 -1.59375 C 14.46875 -0.351562 12.347656 0.265625 9.546875 0.265625 C 6.753906 0.265625 4.640625 -0.351562 3.203125 -1.59375 C 1.773438 -2.84375 1.0625 -4.640625 1.0625 -6.984375 Z M 1.0625 -6.984375 "/></g></g></g><g fill="#000000" fill-opacity="1"><g transform="translate(421.802286, 740.858947)"><g><path d="M 15.03125 0 L 3.890625 0.265625 C 3.160156 0.285156 2.59375 0.101562 2.1875 -0.28125 C 1.789062 -0.675781 1.59375 -1.238281 1.59375 -1.96875 L 1.59375 -18.8125 L 5.875 -18.8125 L 5.875 -3.46875 L 15.03125 -3.734375 Z M 15.03125 0 "/></g></g></g><g fill="#000000" fill-opacity="1"><g transform="translate(448.141525, 740.858947)"><g><path d="M 0.796875 -18.8125 L 17.375 -18.8125 L 17.375 -15.078125 L 11.234375 -15.078125 L 11.234375 0 L 6.96875 0 L 6.96875 -15.078125 L 0.796875 -15.078125 Z M 0.796875 -18.8125 "/></g></g></g><g fill="#000000" fill-opacity="1"><g transform="translate(477.095623, 740.858947)"><g><path d="M 20.203125 0 L 15.875 0 L 14.328125 -4.703125 L 6.40625 -4.703125 L 4.859375 0 L 0.53125 0 L 6.890625 -18.8125 L 13.828125 -18.8125 Z M 9.828125 -15.078125 L 7.625 -8.4375 L 13.078125 -8.4375 L 10.890625 -15.078125 Z M 9.828125 -15.078125 "/></g></g></g><g fill="#000000" fill-opacity="1"><g transform="translate(508.611175, 740.858947)"><g><path d="M 15.953125 -3.734375 L 15.953125 -18.8125 L 20.234375 -18.8125 L 20.234375 0 L 11.828125 0 L 7.078125 -15.078125 L 5.875 -15.078125 L 5.875 0 L 1.59375 0 L 1.59375 -18.8125 L 10 -18.8125 L 14.765625 -3.734375 Z M 15.953125 -3.734375 "/></g></g></g><g fill="#000000" fill-opacity="1"><g transform="translate(541.220718, 740.858947)"><g><path d="M 1.328125 -9.421875 C 1.328125 -11.253906 1.71875 -12.894531 2.5 -14.34375 C 3.289062 -15.789062 4.40625 -16.941406 5.84375 -17.796875 C 7.28125 -18.648438 9 -19.078125 11 -19.078125 C 12.757812 -19.078125 14.296875 -18.773438 15.609375 -18.171875 C 16.929688 -17.566406 17.992188 -16.695312 18.796875 -15.5625 C 19.609375 -14.4375 20.101562 -13.101562 20.28125 -11.5625 L 16.015625 -11.5625 C 15.796875 -12.800781 15.234375 -13.738281 14.328125 -14.375 C 13.421875 -15.019531 12.328125 -15.34375 11.046875 -15.34375 C 9.410156 -15.34375 8.09375 -14.835938 7.09375 -13.828125 C 6.101562 -12.828125 5.609375 -11.359375 5.609375 -9.421875 C 5.609375 -7.484375 6.101562 -6.003906 7.09375 -4.984375 C 8.09375 -3.972656 9.410156 -3.46875 11.046875 -3.46875 C 12.328125 -3.46875 13.421875 -3.789062 14.328125 -4.4375 C 15.234375 -5.09375 15.796875 -6.039062 16.015625 -7.28125 L 20.28125 -7.28125 C 20.101562 -5.738281 19.609375 -4.398438 18.796875 -3.265625 C 17.992188 -2.140625 16.929688 -1.269531 15.609375 -0.65625 C 14.296875 -0.0390625 12.757812 0.265625 11 0.265625 C 9 0.265625 7.28125 -0.160156 5.84375 -1.015625 C 4.40625 -1.867188 3.289062 -3.023438 2.5 -4.484375 C 1.71875 -5.941406 1.328125 -7.585938 1.328125 -9.421875 Z M 1.328125 -9.421875 "/></g></g></g><g fill="#000000" fill-opacity="1"><g transform="translate(573.6168, 740.858947)"><g><path d="M 10.171875 -10.96875 L 14.203125 -18.8125 L 18.765625 -18.8125 L 11.765625 -6.0625 L 11.765625 0 L 7.5 0 L 7.5 -6.0625 L 0.53125 -18.8125 L 5.09375 -18.8125 L 9.09375 -10.96875 L 9.09375 -8.5625 L 10.171875 -8.5625 Z M 10.171875 -10.96875 "/></g></g></g></svg>